<?xml version="1.0" encoding="utf-8"?>
<!-- Generator: Adobe Illustrator 16.0.4, SVG Export Plug-In . SVG Version: 6.00 Build 0)  -->
<!DOCTYPE svg PUBLIC "-//W3C//DTD SVG 1.1//EN" "http://www.w3.org/Graphics/SVG/1.1/DTD/svg11.dtd">
<svg version="1.1" id="Layer_1" xmlns="http://www.w3.org/2000/svg" xmlns:xlink="http://www.w3.org/1999/xlink" x="0px" y="0px"
	 width="1000px" height="1000px" viewBox="-472.5 -472.5 1000 1000" enable-background="new -472.5 -472.5 1000 1000"
	 xml:space="preserve">
<g>
	<path fill="#231F20" d="M27.515-472.5c-275.701,0-500.014,224.312-500.014,500.044c0,275.697,224.313,499.955,500.014,499.955
		c275.719,0,499.986-224.275,499.986-499.955C527.501-248.188,303.233-472.5,27.515-472.5z"/>
	<path fill="#ADDFED" d="M27.497-388.289c229.677,0,415.873,186.172,415.873,415.816c0,229.653-186.195,415.825-415.873,415.825
		c-229.676,0-415.873-186.172-415.873-415.825C-388.376-202.117-202.18-388.289,27.497-388.289z"/>
	<g>
		<g>
			<polygon fill="#231F20" points="146.249,-300.937 -106.368,-312.857 -228.385,-228.308 -298.267,-109.859 35.698,367.857 
				353.261,-91.591 279.998,-223.171 			"/>
			<path fill="#231F20" d="M35.698,386.056c-5.942,0-11.52-2.885-14.908-7.764L-313.175-99.424
				c-4.074-5.841-4.367-13.532-0.729-19.658l69.89-118.477c1.325-2.279,3.149-4.229,5.302-5.724l121.981-84.54
				c3.318-2.261,7.232-3.374,11.208-3.214l252.591,11.929c2.954,0.125,5.729,0.979,8.29,2.439l133.75,77.782
				c2.846,1.639,5.159,4.024,6.761,6.873l73.243,131.563c3.398,6.072,3.025,13.515-0.907,19.203L50.606,378.221
				c-3.415,4.914-8.931,7.835-14.873,7.835C35.716,386.056,35.698,386.056,35.698,386.056z M-276.678-110.678l312.278,446.7
				L331.911-92.623l-65.31-117.328l-125.619-73.02l-242.067-11.431L-214.74-215.64L-276.678-110.678z"/>
		</g>
		<g>
			<polygon fill="#EE3E42" points="139.453,-288.571 -104.874,-298.088 -209.171,-225.362 -102.579,-165.643 158.97,-159.482 
				266.727,-215.364 			"/>
			<path fill="#231F20" d="M158.97-152.663c-0.036,0-0.108,0-0.144,0l-261.53-6.161c-1.129-0.026-2.188-0.33-3.167-0.864
				l-106.629-59.71c-2.063-1.148-3.371-3.268-3.459-5.618c-0.133-2.332,0.961-4.558,2.891-5.938l104.297-72.734
				c1.218-0.837,2.677-1.255,4.172-1.22l244.299,9.517c1.14,0.054,2.171,0.365,3.149,0.908l127.256,73.207
				c2.171,1.255,3.452,3.57,3.416,6.071c-0.035,2.502-1.458,4.745-3.664,5.894l-107.74,55.882
				C161.14-152.921,160.055-152.663,158.97-152.663z M-100.702-172.427l258.105,6.089l95.126-49.32l-114.998-66.165l-240.342-9.356
				l-93.516,65.203L-100.702-172.427z"/>
		</g>
		<g>
			<polygon fill="#EE3E42" points="162.527,-142.638 -96.797,-148.603 -128.643,-19.969 190.85,-15.303 			"/>
			<path fill="#231F20" d="M190.85-8.484c-0.035,0-0.035,0-0.089,0l-319.501-4.647c-2.09-0.035-4.057-1.024-5.319-2.662
				c-1.254-1.638-1.726-3.792-1.201-5.795l31.863-128.652c0.766-3.098,3.594-5.271,6.761-5.199l259.324,6
				c3.113,0.054,5.8,2.261,6.476,5.324l28.341,127.317c0.444,2.047-0.036,4.175-1.353,5.787
				C194.853-9.41,192.913-8.484,190.85-8.484z M-119.996-26.663l302.324,4.397l-25.299-113.678l-248.569-5.724L-119.996-26.663z"/>
		</g>
		<g>
			<polygon fill="#EE3E42" points="274.893,-204.592 171.405,-146.431 203.926,-16.781 336.466,-96.674 			"/>
			<path fill="#231F20" d="M203.926-9.944c-0.889,0-1.779-0.178-2.615-0.525c-1.975-0.819-3.47-2.537-4.038-4.63l-32.468-129.675
				c-0.729-2.982,0.587-6.108,3.255-7.621l103.507-58.143c3.309-1.843,7.4-0.686,9.304,2.573l61.556,107.918
				c1.833,3.214,0.746,7.292-2.438,9.232l-132.54,79.893C206.311-10.282,205.136-9.944,203.926-9.944z M179.304-143.057
				l28.963,115.708l118.984-71.729l-54.938-96.273L179.304-143.057z"/>
		</g>
		<g>
			<polygon fill="#EE3E42" points="-109.722,-149.235 -143.382,-24.82 -285.28,-113.429 -218.2,-215.186 			"/>
			<path fill="#231F20" d="M-143.382-18.001c-1.281,0-2.517-0.348-3.611-1.015l-141.897-88.617c-1.566-0.979-2.66-2.546-3.042-4.336
				c-0.383-1.789-0.053-3.686,0.987-5.217l67.044-101.775c2.019-3.045,6.12-3.971,9.251-2.075l108.487,65.959
				c2.588,1.576,3.825,4.692,3.042,7.604L-136.79-23.049c-0.543,2.074-2.073,3.775-4.101,4.576
				C-141.691-18.144-142.563-18.001-143.382-18.001z M-275.735-115.503l128.146,80.053l29.951-110.598l-98.507-59.871
				L-275.735-115.503z"/>
		</g>
		<g>
			<polygon fill="#EE3E42" points="326.789,-73.972 205.35,-2.047 64.306,308.389 			"/>
			<path fill="#231F20" d="M64.306,315.189c-1.139,0-2.277-0.284-3.381-0.854c-3.077-1.781-4.27-5.592-2.811-8.762L199.104-4.852
				c0.569-1.273,1.513-2.333,2.687-3.045l121.438-71.951c2.74-1.621,6.315-1.131,8.47,1.21c2.169,2.333,2.453,5.867,0.604,8.494
				L69.928,312.234C68.629,314.157,66.512,315.189,64.306,315.189z M210.687,2.751L102.644,240.515l200.998-292.88L210.687,2.751z"
				/>
		</g>
		<g>
			<polygon fill="#EE3E42" points="188.092,-0.73 -127.112,-7.282 32.451,344.641 			"/>
			<path fill="#231F20" d="M32.451,351.441c-2.659,0-5.097-1.566-6.19-3.988L-133.348-4.451c-0.979-2.154-0.782-4.611,0.499-6.561
				c1.29-1.977,3.478-3.179,5.826-3.089l315.258,6.57c2.26,0.036,4.377,1.22,5.604,3.152c1.21,1.95,1.37,4.38,0.444,6.454
				L38.651,347.418C37.619,349.875,35.146,351.441,32.451,351.441L32.451,351.441z M-116.438-0.24L32.451,328.081L177.649,5.867
				L-116.438-0.24z"/>
		</g>
		<g>
			<polygon fill="#EE3E42" points="-146.246,-10.158 4.253,305.504 -277.647,-94.155 			"/>
			<path fill="#231F20" d="M4.253,312.305c-2.135,0-4.243-0.996-5.595-2.884L-283.225-90.237c-1.895-2.662-1.601-6.285,0.641-8.644
				c2.26-2.351,5.844-2.805,8.62-1.033l131.384,83.997c1.059,0.694,1.93,1.656,2.491,2.805L10.026,301.836
				c0.694,1.068,1.094,2.314,1.094,3.668c0,3.739-3.024,6.801-6.742,6.801C4.325,312.305,4.307,312.305,4.253,312.305z
				 M-252.091-69.726l215.648,305.717L-151.565-5.475L-252.091-69.726z"/>
		</g>
	</g>
</g>
</svg>
